<?xml version="1.0" encoding="utf-8"?>
<!-- Generator: Adobe Illustrator 16.0.3, SVG Export Plug-In . SVG Version: 6.00 Build 0)  -->
<!DOCTYPE svg PUBLIC "-//W3C//DTD SVG 1.1//EN" "http://www.w3.org/Graphics/SVG/1.1/DTD/svg11.dtd">
<svg version="1.1" id="Layer_1" xmlns="http://www.w3.org/2000/svg" xmlns:xlink="http://www.w3.org/1999/xlink" x="0px" y="0px"
	 width="36px" height="36px" viewBox="0 0 36 36" enable-background="new 0 0 36 36" xml:space="preserve">
<path d="M29.775,13.315c0-0.356,0.004-0.709,0.007-1.062v-0.004l0,0c0.008-0.755,0.014-1.501-0.026-2.246
	c-0.023-0.41-0.179-0.89-0.439-1.197c-1.896-2.228-3.816-4.432-5.771-6.605c-0.238-0.265-0.729-0.429-1.104-0.432
	c-4.852-0.028-9.703-0.02-14.552-0.017c-1.279,0-1.672,0.39-1.672,1.646c-0.002,3.051-0.001,6.101-0.001,9.151
	c0,0.266,0,0.531,0,0.844c-0.001,0-0.001,0-0.002,0v13.106c0.001,0,0.002,0,0.003,0c0,1.044-0.001,2.065-0.003,3.081v0.326
	c0,0.971,0.001,1.934,0.006,2.896c0.005,0.946,0.494,1.445,1.425,1.445c6.901,0.006,13.803,0.006,20.705,0
	c0.932,0,1.42-0.498,1.426-1.445c0.012-1.823,0.004-3.649,0.004-5.476c0-0.268,0-0.532,0-0.784c0.002,0,0.004,0,0.006,0V13.317
	C29.779,13.316,29.777,13.315,29.775,13.315z"/>
<path fill="#FFFFFF" d="M28.521,13.332c-0.006,0-0.012,0-0.016,0c0,6.379,0,12.754,0,19.263c-7.014,0-13.999,0-21.026,0
	c0-6.95,0-13.747,0-20.747c0.008,0,0.015,0,0.023,0c0-2.897,0-5.819,0-8.816c4.913,0,9.798,0,14.771,0c0,1.026,0,2.019,0,3.011
	c0,1.024-0.004,2.049,0,3.073c0.004,0.897,0.109,1.008,0.985,1.011c1.499,0.006,2.997,0,4.497,0.004
	c0.242,0,0.484,0.023,0.766,0.039C28.521,11.243,28.521,12.256,28.521,13.332z"/>
<line fill="none" x1="18" y1="31.009" x2="18" y2="27.708"/>
<path fill-rule="evenodd" clip-rule="evenodd" fill="#7D7D7D" d="M14.905,23.438c0.616,0.616,1.214,1.214,1.83,1.829
	c-2.681,2.085-5.365,4.173-8.049,6.26c-0.013-0.013-0.028-0.026-0.042-0.037C10.729,28.808,12.813,26.128,14.905,23.438z"/>
<path fill-rule="evenodd" clip-rule="evenodd" fill="#FF0000" d="M10.764,20.16c0.455-0.269,0.984-0.357,1.525-0.371
	c1.308-0.03,2.531,0.324,3.708,0.863c0.11,0.051,0.181,0.063,0.278-0.034c1.484-1.492,2.975-2.98,4.463-4.468
	c0.023-0.024,0.045-0.05,0.09-0.099c-0.218-0.219-0.427-0.443-0.653-0.648c-0.129-0.117-0.154-0.217-0.096-0.383
	c0.236-0.673,0.455-1.353,0.681-2.03c0.021-0.062,0.047-0.123,0.064-0.168c2.177,2.176,4.35,4.349,6.531,6.531
	c-0.296,0.1-0.607,0.204-0.917,0.308c-0.455,0.151-0.91,0.297-1.361,0.454c-0.107,0.037-0.173,0.021-0.246-0.059
	c-0.228-0.239-0.461-0.471-0.702-0.715c-0.064,0.06-0.116,0.104-0.162,0.149c-1.46,1.459-2.918,2.92-4.382,4.377
	c-0.107,0.106-0.126,0.182-0.061,0.325c0.521,1.131,0.861,2.31,0.86,3.566c-0.001,0.461-0.059,0.915-0.231,1.347
	c-0.044,0.112-0.101,0.218-0.142,0.306C16.929,26.326,13.851,23.248,10.764,20.16z"/>
</svg>
